<svg width="380" height="261" viewBox="0 0 380 261" fill="none" xmlns="http://www.w3.org/2000/svg">
<path d="M71.5735 223.55H23.8579V259.85H71.5735V223.55Z" fill="#7EE3B2"/>
<path d="M143.146 199.196H95.4309V259.85H143.146V199.196Z" fill="#7EE3B2"/>
<path d="M214.72 167.491H167.004V259.85H214.72V167.491Z" fill="#7EE3B2"/>
<path d="M286.293 114.649H238.578V259.85H286.293V114.649Z" fill="#7EE3B2"/>
<path d="M357.866 44.8042H310.151V259.85H357.866V44.8042Z" fill="#7EE3B2"/>
<path d="M0 259.85H379.889" stroke="white" stroke-width="1.9765"/>
<path d="M350.985 13.0988L341.35 3.44934L331.715 13.0988" stroke="white" stroke-width="3.953"/>
<path d="M341.35 4.36816C341.35 138.361 199.204 246.984 23.8579 246.984" stroke="white" stroke-width="3.953"/>
<path fill-rule="evenodd" clip-rule="evenodd" d="M286.293 137.487C274.776 150.657 261.593 162.917 246.966 174.095C244.22 176.194 241.424 178.254 238.578 180.274V185.89C242.387 183.246 246.113 180.533 249.751 177.752C263.166 167.501 275.405 156.335 286.293 144.384V137.487ZM310.151 105.008V113.637C324.06 92.2956 334.03 69.166 339.311 44.8042H334.607C329.91 65.9254 321.594 86.1224 310.151 105.008ZM214.72 200.917V195.612C199.805 204.28 183.844 211.959 167.004 218.517V223.447C183.807 216.998 199.766 209.447 214.72 200.917ZM143.147 231.684V226.869C127.811 231.656 111.869 235.548 95.4313 238.459V243.128C111.852 240.254 127.793 236.412 143.147 231.684ZM71.5733 246.577V241.947C56.0149 243.75 40.0807 244.684 23.8579 244.684V249.284C40.0711 249.284 56.0047 248.36 71.5733 246.577Z" fill="#141313"/>
</svg>
