<svg width="475" height="320" viewBox="0 0 475 320" fill="none" xmlns="http://www.w3.org/2000/svg">
<g clip-path="url(#clip0_4_421)">
<path d="M56.7976 57.5385L56.7976 262.975H262.069V57.5385H56.7976Z" fill="#7EE3B2"/>
<path d="M159.559 50.0757C177.655 50.0757 191.057 63.6438 191.057 82.0585C191.057 100.473 177.655 113.924 159.559 113.924C141.463 113.924 128.061 100.446 128.061 82.0585C128.061 63.6708 141.463 50.0757 159.559 50.0757Z" fill="#141313"/>
<path d="M159.559 205.718C177.655 205.718 191.057 219.286 191.057 237.7C191.057 256.115 177.655 269.566 159.559 269.566C141.463 269.566 128.061 256.088 128.061 237.7C128.061 219.312 141.463 205.718 159.559 205.718Z" fill="#141313"/>
<path d="M31.4985 128.288C49.5947 128.288 62.997 141.856 62.997 160.271C62.997 178.686 49.5947 192.137 31.4985 192.137C13.4023 192.137 8.04771e-07 178.658 0 160.271C-8.04772e-07 141.884 13.4023 128.288 31.4985 128.288Z" fill="#7EE3B2"/>
<path d="M237.332 126.106C255.587 126.106 269.111 140.202 269.111 159.327C269.111 178.452 255.587 192.423 237.332 192.423C219.076 192.423 205.552 178.426 205.552 159.327C205.552 140.228 219.076 126.106 237.332 126.106ZM237.332 173.349C240.072 173.349 242.752 172.523 245.03 170.978C247.308 169.432 249.083 167.235 250.129 164.666C251.177 162.096 251.448 159.27 250.909 156.543C250.371 153.817 249.047 151.314 247.105 149.352C245.164 147.389 242.691 146.055 240.002 145.519C237.313 144.983 234.527 145.268 231.998 146.339C229.468 147.41 227.309 149.218 225.794 151.535C224.278 153.852 223.474 156.572 223.484 159.353C223.421 161.212 223.737 163.065 224.411 164.795C225.085 166.526 226.104 168.096 227.403 169.41C228.703 170.723 230.255 171.75 231.963 172.428C233.671 173.106 235.499 173.419 237.332 173.349Z" fill="#FFE607"/>
<path d="M262.074 57.5385V262.975H467.345V57.5385H262.074Z" fill="#FFE607"/>
<path d="M364.583 0C382.679 -7.90015e-07 396.081 13.5682 396.081 31.9828C396.081 50.3974 382.679 63.8487 364.583 63.8487C346.487 63.8487 333.085 50.3704 333.085 31.9828C333.085 13.5952 346.487 7.90015e-07 364.583 0Z" fill="#FFE607"/>
<path d="M364.583 255.794C382.679 255.794 396.081 269.362 396.081 287.777C396.081 306.191 382.679 319.643 364.583 319.643C346.487 319.643 333.085 306.164 333.085 287.777C333.085 269.389 346.487 255.794 364.583 255.794Z" fill="#FFE607"/>
<path d="M442.606 128.288C460.702 128.288 474.104 141.856 474.104 160.271C474.104 178.686 460.702 192.137 442.606 192.137C424.509 192.137 411.107 178.658 411.107 160.271C411.107 141.884 424.509 128.288 442.606 128.288Z" fill="#141313"/>
</g>
<defs>
<clipPath id="clip0_4_421">
<rect width="474.103" height="320" fill="white"/>
</clipPath>
</defs>
</svg>
