<svg width="1445" height="409" viewBox="0 0 1445 409" fill="none" xmlns="http://www.w3.org/2000/svg">
<g clip-path="url(#clip0_3_3)">
<path d="M322.023 374.691C322.023 355.454 336.421 341.084 356.075 341.084C375.728 341.084 390.24 355.454 390.24 374.691C390.24 393.928 375.728 408.298 356.075 408.298C336.421 408.298 322.023 393.928 322.023 374.691Z" fill="#7EE3B2"/>
<path d="M723.298 302.461C723.298 283.224 737.696 268.854 757.349 268.854C777.002 268.854 791.515 283.224 791.515 302.461C791.515 321.698 777.002 336.068 757.349 336.068C737.696 336.068 723.298 321.698 723.298 302.461Z" fill="#7EE3B2"/>
<path d="M1123.57 79.7537C1123.57 60.5166 1137.97 46.147 1157.62 46.147C1177.27 46.147 1191.79 60.5166 1191.79 79.7537C1191.79 98.9909 1177.27 113.361 1157.62 113.361C1137.97 113.361 1123.57 98.9909 1123.57 79.7537Z" fill="#7EE3B2"/>
<path d="M-1.33716 375.193H355.798L757.407 302.88L1158.93 80.7572L1448.18 1.83984" stroke="white" stroke-width="4.68154"/>
<path d="M1558.95 -30.0947L1159.68 79.7543L756.905 302.963L356.131 376.196H-45.1436" stroke="#F7F7F7" stroke-width="8.0255"/>
<path d="M-45.1433 376.195H356.132L757.407 303.464L1158.18 80.2549L1488.73 -9.02881" stroke="#F7F7F7" stroke-width="12.0382"/>
<path d="M371.18 375.195C371.18 383.488 364.4 390.24 356.073 390.24C347.747 390.24 340.967 383.488 341.087 375.195C341.087 374.84 341.087 374.485 341.087 374.13C341.324 366.074 348.104 359.915 356.073 360.151C364.4 360.151 371.18 366.903 371.18 375.195Z" fill="#141313"/>
<path d="M772.455 302.966C772.455 311.258 765.675 318.01 757.348 318.01C749.022 318.01 742.242 311.258 742.362 302.966C742.362 302.611 742.362 302.255 742.362 301.9C742.599 293.845 749.379 287.685 757.348 287.922C765.675 287.922 772.455 294.673 772.455 302.966Z" fill="#141313"/>
<path d="M1172.73 79.255C1172.73 87.5473 1165.94 94.2998 1157.62 94.2998C1149.29 94.2998 1142.51 87.5473 1142.63 79.255C1142.63 78.8999 1142.63 78.5447 1142.63 78.1896C1142.87 70.134 1149.65 63.9744 1157.62 64.2112C1165.94 64.2112 1172.73 70.9626 1172.73 79.255Z" fill="#141313"/>
</g>
<defs>
<clipPath id="clip0_3_3">
<rect width="1444.59" height="408.297" fill="white"/>
</clipPath>
</defs>
</svg>
